<?xml version="1.0" encoding="UTF-8" standalone="no"?>
<!DOCTYPE svg PUBLIC "-//W3C//DTD SVG 1.1//EN" "http://www.w3.org/Graphics/SVG/1.1/DTD/svg11.dtd">
<!-- Generated by Microsoft Visio, SVG Export Drawing2.svg Page-1 -->
<svg xmlns="http://www.w3.org/2000/svg" xmlns:xlink="http://www.w3.org/1999/xlink" xmlns:ev="http://www.w3.org/2001/xml-events"
		xmlns:v="http://schemas.microsoft.com/visio/2003/SVGExtensions/" width="11.1659in" height="5.27537in"
		viewBox="0 0 803.943 379.826" xml:space="preserve" color-interpolation-filters="sRGB" class="st30">
	<v:documentProperties v:langID="1033" v:viewMarkup="false">
		<v:userDefs>
			<v:ud v:nameU="msvNoAutoConnect" v:val="VT0(1):26"/>
		</v:userDefs>
	</v:documentProperties>

	<style type="text/css">
	<![CDATA[
		.st1 {marker-end:url(#mrkr5-6);stroke:#5b9bd5;stroke-linecap:round;stroke-linejoin:round;stroke-width:0.5}
		.st2 {fill:#5b9bd5;fill-opacity:1;stroke:#5b9bd5;stroke-opacity:1;stroke-width:0.16556291390728}
		.st3 {fill:url(#grad0-11);stroke:none;stroke-linecap:butt;stroke-width:0.75}
		.st4 {fill:#37c2b1;stroke:none;stroke-linecap:butt;stroke-width:0.75}
		.st5 {fill:#ffffff;stroke:none;stroke-linecap:butt;stroke-width:0.75}
		.st6 {fill:#258277;stroke:none;stroke-linecap:butt;stroke-width:0.75}
		.st7 {fill:#000000;font-family:Calibri;font-size:0.75em}
		.st8 {fill:url(#grad1-26);stroke:none;stroke-linecap:butt;stroke-width:0.75}
		.st9 {fill:#5ea0ef;stroke:none;stroke-linecap:butt;stroke-width:0.75}
		.st10 {fill:#b3b3b3;stroke:none;stroke-linecap:butt;stroke-width:0.75}
		.st11 {fill:#a3a3a3;stroke:none;stroke-linecap:butt;stroke-width:0.75}
		.st12 {fill:#7a7a7a;stroke:none;stroke-linecap:butt;stroke-width:0.75}
		.st13 {fill:url(#grad0-47);stroke:none;stroke-linecap:butt;stroke-width:0.75}
		.st14 {fill:url(#grad3-54);stroke:none;stroke-linecap:butt;stroke-width:0.75}
		.st15 {fill:url(#grad7-61);stroke:none;stroke-linecap:butt;stroke-width:0.75}
		.st16 {fill:#ff9300;fill-opacity:0.75;stroke:none;stroke-linecap:butt;stroke-width:0.75}
		.st17 {fill:#50e6ff;stroke:none;stroke-linecap:butt;stroke-width:0.75}
		.st18 {fill:#1490df;stroke:none;stroke-linecap:butt;stroke-width:0.75}
		.st19 {fill:url(#grad0-84);stroke:none;stroke-linecap:butt;stroke-width:0.75}
		.st20 {fill:url(#grad0-91);stroke:none;stroke-linecap:butt;stroke-width:0.75}
		.st21 {fill:#0078d4;stroke:none;stroke-linecap:butt;stroke-width:0.75}
		.st22 {fill:#f2f2f2;stroke:none;stroke-linecap:butt;stroke-width:0.75}
		.st23 {fill:url(#grad0-127);stroke:none;stroke-linecap:butt;stroke-width:0.75}
		.st24 {fill:#d15900;stroke:none;stroke-linecap:butt;stroke-width:0.75}
		.st25 {fill:#b31b1b;stroke:none;stroke-linecap:butt;stroke-width:0.75}
		.st26 {fill:#e62323;stroke:none;stroke-linecap:butt;stroke-width:0.75}
		.st27 {fill:#ffb34d;stroke:none;stroke-linecap:butt;stroke-width:0.75}
		.st28 {fill:none;stroke:none;stroke-linecap:butt;stroke-width:0.75}
		.st29 {marker-end:url(#mrkr5-6);marker-start:url(#mrkr5-151);stroke:#5b9bd5;stroke-linecap:round;stroke-linejoin:round;stroke-width:0.5}
		.st30 {fill:none;fill-rule:evenodd;font-size:12px;overflow:visible;stroke-linecap:square;stroke-miterlimit:3}
	]]>
	</style>

	<defs id="Patterns_And_Gradients">
		<linearGradient id="grad0-11" x1="0" y1="0" x2="1" y2="0" gradientTransform="rotate(-90 0.5 0.5)">
			<stop offset="0" stop-color="#b3b3b3" stop-opacity="1"/>
			<stop offset="0.26" stop-color="#c1c1c1" stop-opacity="1"/>
			<stop offset="1" stop-color="#e6e6e6" stop-opacity="1"/>
		</linearGradient>
		<radialGradient id="grad1-26" cx="1" cy="1" r="1.4">
			<stop offset="0.18" stop-color="#5ea0ef" stop-opacity="1"/>
			<stop offset="1" stop-color="#0078d4" stop-opacity="1"/>
		</radialGradient>
		<linearGradient id="grad0-47" x1="0" y1="0" x2="1" y2="0" gradientTransform="rotate(90 0.5 0.5)">
			<stop offset="0.18" stop-color="#5ea0ef" stop-opacity="1"/>
			<stop offset="1" stop-color="#0078d4" stop-opacity="1"/>
		</linearGradient>
		<radialGradient id="grad3-54" cx="0.5" cy="0.5" r="0.73">
			<stop offset="0.18" stop-color="#5ea0ef" stop-opacity="1"/>
			<stop offset="0.56" stop-color="#5c9fee" stop-opacity="1"/>
			<stop offset="0.69" stop-color="#559ced" stop-opacity="1"/>
			<stop offset="0.78" stop-color="#4a97e9" stop-opacity="1"/>
			<stop offset="0.86" stop-color="#3990e4" stop-opacity="1"/>
			<stop offset="0.93" stop-color="#2387de" stop-opacity="1"/>
			<stop offset="0.99" stop-color="#087bd6" stop-opacity="1"/>
			<stop offset="1" stop-color="#0078d4" stop-opacity="1"/>
		</radialGradient>
		<radialGradient id="grad7-61" cx="0" cy="0" r="1.4">
			<stop offset="0.27" stop-color="#ffd70f" stop-opacity="1"/>
			<stop offset="0.49" stop-color="#ffcb12" stop-opacity="1"/>
			<stop offset="0.88" stop-color="#feac19" stop-opacity="1"/>
			<stop offset="1" stop-color="#fea11b" stop-opacity="1"/>
		</radialGradient>
		<linearGradient id="grad0-84" x1="0" y1="0" x2="1" y2="0" gradientTransform="rotate(-90 0.5 0.5)">
			<stop offset="0" stop-color="#fea11b" stop-opacity="1"/>
			<stop offset="0.285" stop-color="#fea51a" stop-opacity="1"/>
			<stop offset="0.545" stop-color="#feb018" stop-opacity="1"/>
			<stop offset="0.8" stop-color="#ffc314" stop-opacity="1"/>
			<stop offset="1" stop-color="#ffd70f" stop-opacity="1"/>
		</linearGradient>
		<linearGradient id="grad0-91" x1="0" y1="0" x2="1" y2="0" gradientTransform="rotate(-90 0.5 0.5)">
			<stop offset="0" stop-color="#32bedd" stop-opacity="1"/>
			<stop offset="0.175" stop-color="#32caea" stop-opacity="1"/>
			<stop offset="0.41" stop-color="#32d2f2" stop-opacity="1"/>
			<stop offset="0.775" stop-color="#32d4f5" stop-opacity="1"/>
		</linearGradient>
		<linearGradient id="grad0-127" x1="0" y1="0" x2="1" y2="0" gradientTransform="rotate(-90 0.5 0.5)">
			<stop offset="0" stop-color="#f78d1e" stop-opacity="1"/>
			<stop offset="0.44" stop-color="#f8911e" stop-opacity="1"/>
			<stop offset="0.85" stop-color="#f99c1d" stop-opacity="1"/>
			<stop offset="1" stop-color="#faa21d" stop-opacity="1"/>
		</linearGradient>
	</defs>
	<defs id="Markers">
		<g id="lend5">
			<path d="M 2 1 L 0 0 L 1.98117 -0.993387 C 1.67173 -0.364515 1.67301 0.372641 1.98465 1.00043 " style="stroke:none"/>
		</g>
		<marker id="mrkr5-6" class="st2" v:arrowType="5" v:arrowSize="2" v:setback="10.57" refX="-10.57" orient="auto"
				markerUnits="strokeWidth" overflow="visible">
			<use xlink:href="#lend5" transform="scale(-6.04,-6.04) "/>
		</marker>
		<marker id="mrkr5-151" class="st2" v:arrowType="5" v:arrowSize="2" v:setback="9.85" refX="9.85" orient="auto"
				markerUnits="strokeWidth" overflow="visible">
			<use xlink:href="#lend5" transform="scale(6.04) "/>
		</marker>
	</defs>
	<g v:mID="0" v:index="1" v:groupContext="foregroundPage">
		<v:userDefs>
			<v:ud v:nameU="msvThemeOrder" v:val="VT0(0):26"/>
		</v:userDefs>
		<title>Page-1</title>
		<v:pageProperties v:drawingScale="1" v:pageScale="1" v:drawingUnits="19" v:shadowOffsetX="9" v:shadowOffsetY="-9"/>
		<v:layer v:name="Connector" v:index="0"/>
		<g id="shape87-1" v:mID="87" v:groupContext="shape" v:layerMember="0" transform="translate(143.914,-62.8637)">
			<title>Dynamic connector.87</title>
			<path d="M0 370.83 L13.5 370.83 L13.5 370.82 L70.13 370.82" class="st1"/>
		</g>
		<g id="group161-7" transform="translate(660.028,-31.2425)" v:mID="161" v:groupContext="group">
			<title>Storage Accounts.182</title>
			<desc>Azure Storage</desc>
			<g id="shape162-8" v:mID="162" v:groupContext="shape">
				<title>Sheet.162</title>
				<v:userDefs>
					<v:ud v:nameU="msvDisableCustomConnectionPoints" v:prompt="" v:val="VT0(1):5"/>
				</v:userDefs>
				<path d="M0 318.11 L83.94 318.11 L83.94 376.33 A2.81456 3.50018 0 0 1 81.13 379.83 L2.81 379.83 A2.81456 3.50018
							 0 0 1 0 376.33 L0 318.11 Z" class="st3"/>
			</g>
			<g id="shape163-12" v:mID="163" v:groupContext="shape" transform="translate(0,-61.7138)">
				<title>Sheet.163</title>
				<v:userDefs>
					<v:ud v:nameU="msvDisableCustomConnectionPoints" v:prompt="" v:val="VT0(1):5"/>
				</v:userDefs>
				<path d="M2.81 357.6 L81.13 357.6 A2.81456 3.50018 0 0 1 83.94 361.1 L83.94 379.83 L0 379.83 L0 361.04 A2.81456 3.50018
							 0 0 1 2.81 357.6 Z" class="st4"/>
			</g>
			<g id="shape164-14" v:mID="164" v:groupContext="shape" transform="translate(10.1225,-43.0461)">
				<title>Sheet.164</title>
				<v:userDefs>
					<v:ud v:nameU="msvDisableCustomConnectionPoints" v:prompt="" v:val="VT0(1):5"/>
				</v:userDefs>
				<path d="M1.28 367.91 L62.36 367.91 A1.33321 1.65798 0 0 1 63.65 369.57 L63.65 378.17 A1.33321 1.65798 0 0 1 62.36
							 379.83 L1.28 379.83 A1.33321 1.65798 0 0 1 0 378.17 L0 369.57 A1.33321 1.65798 0 0 1 1.28 367.91 Z"
						class="st5"/>
			</g>
			<g id="shape165-16" v:mID="165" v:groupContext="shape" transform="translate(10.1719,-25.8522)">
				<title>Sheet.165</title>
				<v:userDefs>
					<v:ud v:nameU="msvDisableCustomConnectionPoints" v:prompt="" v:val="VT0(1):5"/>
				</v:userDefs>
				<path d="M1.28 367.85 L62.36 367.85 A1.33321 1.65798 0 0 1 63.65 369.51 L63.65 378.17 A1.33321 1.65798 0 0 1 62.36
							 379.83 L1.28 379.83 A1.33321 1.65798 0 0 1 0 378.17 L0 369.82 A1.33321 1.65798 0 0 1 1.28 367.85 Z"
						class="st4"/>
			</g>
			<g id="shape166-18" v:mID="166" v:groupContext="shape" transform="translate(10.1719,-8.53553)">
				<title>Sheet.166</title>
				<v:userDefs>
					<v:ud v:nameU="msvDisableCustomConnectionPoints" v:prompt="" v:val="VT0(1):5"/>
				</v:userDefs>
				<path d="M1.28 367.85 L62.36 367.85 A1.33321 1.65798 0 0 1 63.65 369.51 L63.65 378.17 A1.33321 1.65798 0 0 1 62.36
							 379.83 L1.28 379.83 A1.33321 1.65798 0 0 1 0 378.17 L0 369.51 A1.33321 1.65798 0 0 1 1.28 367.85 Z"
						class="st6"/>
			</g>
			<g id="shape161-20" v:mID="161" v:groupContext="groupContent">
				<v:textBlock v:margins="rect(0,0,0,0)"/>
				<v:textRect cx="41.9715" cy="385.228" width="167.89" height="10.8036"/>
				<text x="16.37" y="387.93" class="st7" v:langID="1033"><v:paragraph v:horizAlign="1"/><v:tabList/>Azure Storage</text>			</g>
		</g>
		<g id="group167-22" transform="translate(219.328,-29.884)" v:mID="167" v:groupContext="group">
			<v:userDefs>
				<v:ud v:nameU="msvDisableCustomConnectionPoints" v:prompt="" v:val="VT0(1):5"/>
			</v:userDefs>
			<title>DNS Zones</title>
			<desc>Azure DNS</desc>
			<g id="shape168-23" v:mID="168" v:groupContext="shape">
				<title>f57e105d-6d2d-4ad7-b8c3-c10684c</title>
				<v:userDefs>
					<v:ud v:nameU="msvDisableCustomConnectionPoints" v:prompt="" v:val="VT0(1):5"/>
				</v:userDefs>
				<path d="M67.84 371 A42.067 42.067 0 0 1 16.29 304.51 L16.74 304.22 A42.0517 42.0517 0 0 1 67.84 371 Z" class="st8"/>
			</g>
			<g id="shape169-27" v:mID="169" v:groupContext="shape" transform="translate(5.86241,-6.14987)">
				<title>Sheet.169</title>
				<v:userDefs>
					<v:ud v:nameU="msvDisableCustomConnectionPoints" v:prompt="" v:val="VT0(1):5"/>
				</v:userDefs>
				<path d="M36.2 305.86 A38.0444 38.0444 -180 1 0 74.25 343.91 A38.0939 38.0939 -180 0 0 36.2 305.86 ZM61.68 318.68
							 A36.4613 36.4613 0 0 1 51.05 322.64 A43.6843 43.6843 -180 0 0 44.86 309.28 A35.6202 35.6202 0 0 1 61.68
							 318.68 ZM36.2 307.99 A32.6024 32.6024 0 0 1 41.6 308.44 A37.0055 37.0055 0 0 1 49.17 323.28 A74.8025
							 74.8025 0 0 1 22.2 323.28 A36.5108 36.5108 0 0 1 29.67 308.73 A36.3129 36.3129 0 0 1 36.2 307.99 ZM26.31
							 309.28 A43.1401 43.1401 -180 0 0 20.03 322.54 A27.6057 27.6057 0 0 1 10.63 318.73 A36.3623 36.3623 0
							 0 1 26.31 309.28 ZM10.08 368.65 A26.072 26.072 0 0 1 18.89 364.89 A35.0266 35.0266 -180 0 0 25.57 378.34
							 A35.8676 35.8676 0 0 1 10.08 368.65 ZM41.79 379.53 A35.0266 35.0266 0 0 1 36.2 379.83 A33.7898 33.7898
							 0 0 1 29.08 379.08 A29.6835 29.6835 0 0 1 20.82 364.24 A72.8731 72.8731 0 0 1 49.91 364.24 A29.6835
							 29.6835 0 0 1 41.55 379.08 L41.79 379.53 ZM45.41 378.74 A35.2739 35.2739 -180 0 0 52.23 364.89 A33.0477
							 33.0477 0 0 1 62.13 368.99 A35.2739 35.2739 0 0 1 45.41 378.54 L45.41 378.74 ZM52.73 362.81 C53.12 361.03
							 53.47 359.2 53.72 357.27 L51.44 357.81 C51.19 359.34 50.95 360.88 50.6 362.31 A75.3467 75.3467 -180
							 0 0 20.47 362.31 C20.13 360.98 19.88 359.54 19.63 358.06 A1.38523 1.38523 0 0 1 19.63 357.61 L17.36
							 356.97 A11.6755 11.6755 -180 0 0 17.36 358.36 C17.36 359.94 17.9 361.42 18.2 362.86 A29.1888 29.1888
							 -180 0 0 8.3 367.06 A35.8181 35.8181 0 0 1 8.85 320.56 A31.1182 31.1182 -180 0 0 19.14 324.81 C18.79
							 326 18.49 327.29 18.25 328.57 C18 329.86 18.25 329.81 17.85 330.4 L20.18 329.86 L20.18 329.02 C20.47
							 327.73 20.77 326.49 21.12 325.31 A73.6646 73.6646 -180 0 0 36.2 326.49 A74.2088 74.2088 -180 0 0 49.96
							 325.21 C50.3 326.54 50.65 327.98 50.95 329.41 L53.22 329.96 C52.86 328.18 52.46 326.53 52.04 325.01
							 A38.2423 38.2423 -180 0 0 63.41 320.51 A35.7192 35.7192 0 0 1 63.71 367.46 A36.016 36.016 -180 0 0 52.73
							 362.66 L52.73 362.81 Z" class="st9"/>
			</g>
			<g id="shape170-29" v:mID="170" v:groupContext="shape" transform="translate(15.7476,-31.4304)">
				<title>Sheet.170</title>
				<v:userDefs>
					<v:ud v:nameU="msvDisableCustomConnectionPoints" v:prompt="" v:val="VT0(1):5"/>
				</v:userDefs>
				<path d="M0.05 359.3 A39.1823 39.1823 0 0 1 5.79 358.9 A12.0713 12.0713 0 0 1 14.25 361.47 A9.89451 9.89451 0 0 1
							 17.17 368.69 A10.9334 10.9334 0 0 1 14.15 376.81 A12.8629 12.8629 0 0 1 4.95 379.83 A45.3663 45.3663
							 0 0 1 0 379.58 L0.05 359.3 ZM2.77 377.75 A19.789 19.789 -180 0 0 5.49 377.75 A8.01456 8.01456 -180 0
							 0 14.35 368.79 A7.42088 7.42088 -180 0 0 5.89 360.78 A15.6828 15.6828 -180 0 0 2.77 360.78 L2.77 377.75
							 Z" class="st5"/>
			</g>
			<g id="shape171-31" v:mID="171" v:groupContext="shape" transform="translate(36.4271,-31.4798)">
				<title>Sheet.171</title>
				<v:userDefs>
					<v:ud v:nameU="msvDisableCustomConnectionPoints" v:prompt="" v:val="VT0(1):5"/>
				</v:userDefs>
				<path d="M0 379.68 L0 358.85 L2.92 358.85 L9.6 369.24 A60.2576 60.2576 0 0 1 13.36 376.02 C13.11 373.25 13.06 370.72
							 13.06 367.46 L13.06 358.85 L15.53 358.85 L15.53 379.68 L12.81 379.68 L6.28 369.24 C4.85 366.91 3.46
							 364.29 2.37 362.31 C2.37 364.94 2.37 367.26 2.37 370.92 L2.37 379.83 L0 379.68 Z" class="st5"/>
			</g>
			<g id="shape172-33" v:mID="172" v:groupContext="shape" transform="translate(55.7709,-31.3314)">
				<title>Sheet.172</title>
				<v:userDefs>
					<v:ud v:nameU="msvDisableCustomConnectionPoints" v:prompt="" v:val="VT0(1):5"/>
				</v:userDefs>
				<path d="M0.59 376.26 A9.89451 9.89451 -180 0 0 5.54 377.6 C8.31 377.6 9.89 376.17 9.89 374.04 C9.89 371.91 8.81
							 370.97 5.99 369.93 C3.17 368.89 0.45 366.96 0.45 364 A6.03565 6.03565 0 0 1 7.22 358.36 A9.89451 9.89451
							 0 0 1 11.82 359.34 L11.03 361.57 A8.06403 8.06403 -180 0 0 7.07 360.58 C4.21 360.58 3.12 362.26 3.12
							 363.7 C3.12 365.13 4.4 366.62 7.27 367.71 C10.14 368.79 12.62 370.77 12.62 373.84 C12.62 376.91 10.24
							 379.83 5.29 379.83 A10.6861 10.6861 0 0 1 0 378.49 L0.59 376.26 Z" class="st5"/>
			</g>
			<g id="shape167-35" v:mID="167" v:groupContext="groupContent">
				<v:textBlock v:margins="rect(0,0,0,0)"/>
				<v:textRect cx="41.9715" cy="386.308" width="83.95" height="10.8036"/>
				<text x="22.66" y="389.01" class="st7" v:langID="1033"><v:paragraph v:horizAlign="1"/><v:tabList/>Azure DNS</text>			</g>
		</g>
		<g id="group179-37" transform="translate(390.813,-31.2425)" v:mID="179" v:groupContext="group">
			<v:userDefs>
				<v:ud v:nameU="msvDisableCustomConnectionPoints" v:prompt="" v:val="VT0(1):5"/>
			</v:userDefs>
			<title>CDN Profiles</title>
			<desc>Azure CDN</desc>
			<g id="shape180-38" v:mID="180" v:groupContext="shape" transform="translate(-324.514,335.304) rotate(-90)">
				<title>Sheet.180</title>
				<v:userDefs>
					<v:ud v:nameU="msvDisableCustomConnectionPoints" v:prompt="" v:val="VT0(1):5"/>
				</v:userDefs>
				<path d="M0 375.67 A4.15654 4.15654 -180 0 0 4.16 379.83 L5.28 379.83 A4.15654 4.15654 -180 0 0 9.43 375.67 L9.43
							 341.94 A4.15654 4.15654 -180 0 0 5.28 337.78 L4.16 337.78 A4.15654 4.15654 -180 0 0 0 341.94 L0 375.67
							 Z" class="st10"/>
			</g>
			<g id="shape181-40" v:mID="181" v:groupContext="shape" transform="translate(-337.782,354.408) rotate(-90)">
				<title>Sheet.181</title>
				<v:userDefs>
					<v:ud v:nameU="msvDisableCustomConnectionPoints" v:prompt="" v:val="VT0(1):5"/>
				</v:userDefs>
				<path d="M0 375.67 A4.15654 4.15654 -180 0 0 4.16 379.83 L5.28 379.83 A4.15654 4.15654 -180 0 0 9.43 375.67 L9.43
							 341.94 A4.15654 4.15654 -180 0 0 5.28 337.78 L4.16 337.78 A4.15654 4.15654 -180 0 0 0 341.94 L0 375.67
							 Z" class="st11"/>
			</g>
			<g id="shape182-42" v:mID="182" v:groupContext="shape" transform="translate(-324.514,373.512) rotate(-90)">
				<title>Sheet.182</title>
				<v:userDefs>
					<v:ud v:nameU="msvDisableCustomConnectionPoints" v:prompt="" v:val="VT0(1):5"/>
				</v:userDefs>
				<path d="M0 375.67 A4.15654 4.15654 -180 0 0 4.16 379.83 L5.28 379.83 A4.15654 4.15654 -180 0 0 9.43 375.67 L9.43
							 341.94 A4.15654 4.15654 -180 0 0 5.28 337.78 L4.16 337.78 A4.15654 4.15654 -180 0 0 0 341.94 L0 375.67
							 Z" class="st12"/>
			</g>
			<g id="shape183-44" v:mID="183" v:groupContext="shape" transform="translate(28.7754,0)">
				<title>Sheet.183</title>
				<v:userDefs>
					<v:ud v:nameU="msvDisableCustomConnectionPoints" v:prompt="" v:val="VT0(1):5"/>
				</v:userDefs>
				<path d="M115.1 353.61 A26.2176 26.2176 -180 0 0 92.64 328.19 A33.0118 33.0118 -180 0 0 58.99 296.22 A33.8111 33.8111
							 -180 0 0 27.02 318.6 A31.0934 31.0934 -180 0 0 -0 348.97 A31.9726 31.9726 -180 0 0 32.45 379.83 L35.33
							 379.83 L87.92 379.83 L89.28 379.83 A26.5373 26.5373 -180 0 0 115.1 353.61 Z" class="st13"/>
			</g>
			<g id="shape179-48" v:mID="179" v:groupContext="groupContent">
				<v:textBlock v:margins="rect(0,0,0,0)"/>
				<v:textRect cx="71.9384" cy="386.308" width="143.88" height="10.8036"/>
				<text x="52.29" y="389.01" class="st7" v:langID="1033"><v:paragraph v:horizAlign="1"/><v:tabList/>Azure CDN</text>			</g>
		</g>
		<g id="group184-50" transform="translate(420.492,-277.133)" v:mID="184" v:groupContext="group">
			<v:userDefs>
				<v:ud v:nameU="msvDisableCustomConnectionPoints" v:prompt="" v:val="VT0(1):5"/>
			</v:userDefs>
			<title>Key Vaults</title>
			<desc>Key Vaults</desc>
			<g id="shape185-51" v:mID="185" v:groupContext="shape">
				<title>aacf8311-a317-400f-b613-74bd00d</title>
				<v:userDefs>
					<v:ud v:nameU="msvDisableCustomConnectionPoints" v:prompt="" v:val="VT0(1):5"/>
				</v:userDefs>
				<path d="M41.97 295.88 A41.9715 41.9715 -180 1 0 83.94 337.85 A42.0209 42.0209 -180 0 0 41.97 295.88 ZM41.97 374.1
							 A36.2436 36.2436 0 1 1 78.22 337.85 A36.2436 36.2436 0 0 1 41.97 374.1 Z" class="st14"/>
			</g>
			<g id="shape186-55" v:mID="186" v:groupContext="shape" transform="translate(5.72787,-5.72787)">
				<title>Sheet.186</title>
				<v:userDefs>
					<v:ud v:nameU="msvDisableCustomConnectionPoints" v:prompt="" v:val="VT0(1):5"/>
				</v:userDefs>
				<ellipse cx="36.2436" cy="343.583" rx="36.2436" ry="36.2436" class="st5"/>
			</g>
			<g id="group187-57" transform="translate(17.4163,-2.46806)" v:mID="187" v:groupContext="group">
				<v:userDefs>
					<v:ud v:nameU="msvDisableCustomConnectionPoints" v:prompt="" v:val="VT0(1):5"/>
				</v:userDefs>
				<title>Sheet.187</title>
				<g id="shape188-58" v:mID="188" v:groupContext="shape">
					<title>bd983c41-db73-40ec-a4f4-da1213f</title>
					<v:userDefs>
						<v:ud v:nameU="msvDisableCustomConnectionPoints" v:prompt="" v:val="VT0(1):5"/>
					</v:userDefs>
					<path d="M46.48 332.08 A9.08559 9.08559 -180 0 0 46.48 319.29 L30.92 303.68 A9.03622 9.03622 -180 0 0 18.19 303.68
								 L2.63 319.29 A9.08559 9.08559 -180 0 0 2.63 332.08 L15.57 345.26 A2.51829 2.51829 0 0 1 16.31 347.04
								 L16.31 371.13 A3.11083 3.11083 -180 0 0 17.2 373.31 L23.12 379.23 A2.02451 2.02451 -180 0 0 25.99
								 379.23 L31.72 373.51 L35.07 370.15 A1.23446 1.23446 -180 0 0 35.07 368.47 L32.65 366.05 A1.33321
								 1.33321 0 0 1 32.65 364.22 L35.07 361.8 A1.23446 1.23446 -180 0 0 35.07 360.12 L32.65 357.7 A1.33321
								 1.33321 0 0 1 32.65 355.88 L35.07 353.46 A1.23446 1.23446 -180 0 0 35.07 351.78 L31.72 348.37 L31.72
								 347.14 L46.48 332.08 ZM24.56 307.49 A5.11065 5.11065 0 1 1 24.56 317.71 A5.11065 5.11065 0 1 1 24.56
								 307.49 Z" class="st15"/>
				</g>
				<g id="shape189-62" v:mID="189" v:groupContext="shape" transform="translate(20.1605,-8.21923)">
					<title>ad2e7e44-9bfd-4775-8bf4-8ef26a5</title>
					<v:userDefs>
						<v:ud v:nameU="msvDisableCustomConnectionPoints" v:prompt="" v:val="VT0(1):5"/>
					</v:userDefs>
					<path d="M0.35 379.65 A1.1357 1.1357 -180 0 0 2.22 378.81 L2.22 359.06 A1.18508 1.18508 -180 0 0 1.68 358.07
								 A1.08632 1.08632 -180 0 0 0 359.06 L0 378.81 A1.38259 1.38259 -180 0 0 0.35 379.65 Z" class="st16"/>
				</g>
				<g id="shape190-64" v:mID="190" v:groupContext="shape" transform="translate(12.1119,-52.3418)">
					<title>a996fbff-3936-4b24-b407-369336c</title>
					<v:userDefs>
						<v:ud v:nameU="msvDisableCustomConnectionPoints" v:prompt="" v:val="VT0(1):5"/>
					</v:userDefs>
					<path d="M-0 378.44 A1.38262 1.38262 -180 0 0 1.38 379.83 L24.15 379.83 A1.38262 1.38262 -180 0 0 25.53 378.44
								 L25.53 378.2 A1.38262 1.38262 -180 0 0 24.15 376.81 L1.38 376.81 A1.38262 1.38262 -180 0 0 0 378.2
								 L0 378.44 Z" class="st16"/>
				</g>
				<g id="shape191-66" v:mID="191" v:groupContext="shape" transform="translate(12.1119,-47.4533)">
					<title>bb12d31c-3352-4a18-87dd-a169a4a</title>
					<v:userDefs>
						<v:ud v:nameU="msvDisableCustomConnectionPoints" v:prompt="" v:val="VT0(1):5"/>
					</v:userDefs>
					<path d="M-0 378.44 A1.38262 1.38262 -180 0 0 1.38 379.83 L24.15 379.83 A1.38262 1.38262 -180 0 0 25.53 378.44
								 L25.53 378.2 A1.38262 1.38262 -180 0 0 24.15 376.81 L1.38 376.81 A1.38262 1.38262 -180 0 0 0 378.2
								 L0 378.44 Z" class="st16"/>
				</g>
			</g>
			<g id="shape184-68" v:mID="184" v:groupContext="groupContent">
				<v:textBlock v:margins="rect(0,0,0,0)"/>
				<v:textRect cx="41.9715" cy="386.308" width="83.95" height="10.8036"/>
				<text x="22.97" y="389.01" class="st7" v:langID="1033"><v:paragraph v:horizAlign="1"/><v:tabList/>Key Vaults</text>			</g>
		</g>
		<g id="group192-70" transform="translate(219.328,-277.133)" v:mID="192" v:groupContext="group">
			<v:userDefs>
				<v:ud v:nameU="msvDisableCustomConnectionPoints" v:prompt="" v:val="VT0(1):5"/>
			</v:userDefs>
			<title>Function Apps</title>
			<desc>Function Apps</desc>
			<g id="group193-71" v:mID="193" v:groupContext="group">
				<v:userDefs>
					<v:ud v:nameU="msvDisableCustomConnectionPoints" v:prompt="" v:val="VT0(1):5"/>
				</v:userDefs>
				<title>Sheet.193</title>
				<g id="shape194-72" v:mID="194" v:groupContext="shape" transform="translate(286.207,592.318) rotate(134.919)">
					<title>Sheet.194</title>
					<v:userDefs>
						<v:ud v:nameU="msvDisableCustomConnectionPoints" v:prompt="" v:val="VT0(1):5"/>
					</v:userDefs>
					<path d="M10.45 349.2 L14.1 349.2 A1.17677 1.17677 0 0 1 15.28 350.38 L15.28 377.48 A2.34913 2.34913 0 0 1 12.93
								 379.83 L9.26 379.83 L9.26 350.38 A1.17677 1.17677 0 0 1 10.43 349.2 L10.45 349.2 Z" class="st17"/>
				</g>
				<g id="shape195-74" v:mID="195" v:groupContext="shape" transform="translate(268.198,59.5395) rotate(44.919)">
					<title>Sheet.195</title>
					<v:userDefs>
						<v:ud v:nameU="msvDisableCustomConnectionPoints" v:prompt="" v:val="VT0(1):5"/>
					</v:userDefs>
					<path d="M10.25 349.64 L13.92 349.64 A1.17677 1.17677 0 0 1 15.1 350.81 L15.1 379.83 L11.42 379.83 A2.34913 2.34913
								 0 0 1 9.07 377.48 L9.07 350.8 A1.17677 1.17677 0 0 1 10.25 349.64 Z" class="st18"/>
				</g>
			</g>
			<g id="group196-76" transform="translate(61.7132,-23.7354)" v:mID="196" v:groupContext="group">
				<v:userDefs>
					<v:ud v:nameU="msvDisableCustomConnectionPoints" v:prompt="" v:val="VT0(1):5"/>
				</v:userDefs>
				<title>Sheet.196</title>
				<g id="shape197-77" v:mID="197" v:groupContext="shape" transform="translate(268.46,107.853) rotate(45.081)">
					<title>Sheet.197</title>
					<v:userDefs>
						<v:ud v:nameU="msvDisableCustomConnectionPoints" v:prompt="" v:val="VT0(1):5"/>
					</v:userDefs>
					<path d="M0 349.2 L3.67 349.2 A2.34913 2.34913 0 0 1 6.02 351.55 L6.02 378.65 A1.17677 1.17677 0 0 1 4.84 379.83
								 L1.19 379.83 A1.17677 1.17677 0 0 1 0.01 378.65 L0.01 349.2 L0 349.2 Z" class="st17"/>
				</g>
				<g id="shape198-79" v:mID="198" v:groupContext="shape" transform="translate(272.344,606.201) rotate(135.081)">
					<title>Sheet.198</title>
					<v:userDefs>
						<v:ud v:nameU="msvDisableCustomConnectionPoints" v:prompt="" v:val="VT0(1):5"/>
					</v:userDefs>
					<path d="M2.35 349.64 L6.02 349.64 L6.02 378.65 A1.17677 1.17677 0 0 1 4.85 379.83 L1.18 379.83 A1.17677 1.17677
								 0 0 1 -0 378.65 L0 351.98 A2.34913 2.34913 0 0 1 2.35 349.63 L2.35 349.64 Z" class="st18"/>
				</g>
			</g>
			<g id="shape199-81" v:mID="199" v:groupContext="shape" transform="translate(27.7216,-8.25063)">
				<title>Sheet.199</title>
				<v:userDefs>
					<v:ud v:nameU="msvDisableCustomConnectionPoints" v:prompt="" v:val="VT0(1):5"/>
				</v:userDefs>
				<path d="M16.7 347.26 L0.88 347.26 a0.850625 0.850625 0 0 1 -0.881476 -0.797736 a0.731625 0.731625 0 0 1 0.0793329
							 -0.330554 L19.04 308.61 a0.907921 0.907921 0 0 1 0.819773 -0.467182 L38.57 308.14 a0.850625 0.850625
							 0 0 1 0.881476 0.797736 a0.727218 0.727218 0 0 1 -0.154258 0.440738 L17.03 338.74 L38.75 338.74 a0.850625
							 0.850625 0 0 1 0.881476 0.797736 a0.775699 0.775699 0 0 1 -0.229184 0.537701 L3.31 377.62 C2.97 377.83
							 0.56 379.83 1.74 376.79 L16.7 347.26 Z" class="st19"/>
			</g>
			<g id="shape192-85" v:mID="192" v:groupContext="groupContent">
				<v:textBlock v:margins="rect(0,0,0,0)"/>
				<v:textRect cx="43.1054" cy="386.308" width="86.22" height="10.8036"/>
				<text x="17.02" y="389.01" class="st7" v:langID="1033"><v:paragraph v:horizAlign="1"/><v:tabList/>Function Apps</text>			</g>
		</g>
		<g id="group200-87" transform="translate(59.9715,-29.8907)" v:mID="200" v:groupContext="group">
			<title>Browser.200</title>
			<desc>Browser</desc>
			<g id="shape201-88" v:mID="201" v:groupContext="shape">
				<title>Sheet.201</title>
				<v:userDefs>
					<v:ud v:nameU="msvDisableCustomConnectionPoints" v:prompt="" v:val="VT0(1):5"/>
				</v:userDefs>
				<path d="M0 318.13 L83.94 318.13 L83.94 376.34 A2.80468 3.48841 0 0 1 81.14 379.83 L2.8 379.83 A2.80468 3.48841 0
							 0 1 0 376.34 L0 318.13 Z" class="st20"/>
			</g>
			<g id="shape202-92" v:mID="202" v:groupContext="shape" transform="translate(0,-61.6982)">
				<title>Sheet.202</title>
				<v:userDefs>
					<v:ud v:nameU="msvDisableCustomConnectionPoints" v:prompt="" v:val="VT0(1):5"/>
				</v:userDefs>
				<path d="M2.82 357.58 L81.12 357.58 A2.80468 3.48841 0 0 1 83.93 361.07 L83.93 379.83 L0 379.83 L0 361.07 A2.80468
							 3.48841 0 0 1 2.82 357.58 Z" class="st21"/>
			</g>
			<g id="shape203-94" v:mID="203" v:groupContext="shape" transform="translate(11.2928,-68.3373)">
				<title>Sheet.203</title>
				<v:userDefs>
					<v:ud v:nameU="msvDisableCustomConnectionPoints" v:prompt="" v:val="VT0(1):5"/>
				</v:userDefs>
				<path d="M0 378.08 A1.40237 1.74425 -180 0 0 1.4 379.83 L59.96 379.83 A1.40237 1.74425 -180 0 0 61.36 378.08 L61.36
							 372.61 A1.40237 1.74425 -180 0 0 59.96 370.87 L1.4 370.87 A1.40237 1.74425 -180 0 0 0 372.61 L0 378.08
							 Z" class="st22"/>
			</g>
			<g id="shape200-96" v:mID="200" v:groupContext="groupContent">
				<v:textBlock v:margins="rect(0,0,0,0)"/>
				<v:textRect cx="41.9715" cy="385.228" width="167.89" height="10.8036"/>
				<text x="26.8" y="387.93" class="st7" v:langID="1033"><v:paragraph v:horizAlign="1"/><v:tabList/>Browser</text>			</g>
		</g>
		<g id="shape212-98" v:mID="212" v:groupContext="shape" v:layerMember="0" transform="translate(311.971,-62.8651)">
			<title>Dynamic connector.212</title>
			<path d="M0 370.83 L75.71 370.83" class="st1"/>
		</g>
		<g id="shape214-103" v:mID="214" v:groupContext="shape" v:layerMember="0" transform="translate(534.69,-64.1303)">
			<title>Dynamic connector.214</title>
			<path d="M0 370.91 L13.5 370.91 L13.5 370.74 L120.05 370.74" class="st1"/>
		</g>
		<g id="shape215-108" v:mID="215" v:groupContext="shape" v:layerMember="0" transform="translate(453.607,-266.33)">
			<title>Dynamic connector.215</title>
			<path d="M8.86 379.83 L8.86 480.55 L9.14 480.55 L9.14 526.02" class="st1"/>
		</g>
		<g id="shape216-113" v:mID="216" v:groupContext="shape" v:layerMember="0" transform="translate(303.572,-310.105)">
			<title>Dynamic connector.216</title>
			<path d="M0 370.83 L111.64 370.83" class="st1"/>
		</g>
		<g id="shape217-118" v:mID="217" v:groupContext="shape" v:layerMember="0" transform="translate(252.866,-113.846)">
			<title>Dynamic connector.217</title>
			<path d="M8.43 379.83 L9.53 232.63" class="st1"/>
		</g>
		<g id="group218-123" transform="translate(63,-277.133)" v:mID="218" v:groupContext="group">
			<title>Icon-web-49</title>
			<g id="shape219-124" v:mID="219" v:groupContext="shape" transform="translate(0,-17.292)">
				<title>Sheet.219</title>
				<path d="M0 377.03 A2.79816 2.79816 -180 0 0 2.8 379.83 L81.14 379.83 A2.79816 2.79816 -180 0 0 83.94 377.03 L83.94
							 323.16 A2.79816 2.79816 -180 0 0 81.14 320.37 L2.8 320.37 A2.79816 2.79816 -180 0 0 0 323.16 L0 377.03
							 Z" class="st23"/>
			</g>
			<g id="shape220-128" v:mID="220" v:groupContext="shape" transform="translate(4.89667,-22.5618)">
				<title>Sheet.220</title>
				<path d="M0 378.43 A1.39908 1.39908 -180 0 0 1.4 379.83 L72.75 379.83 A1.39908 1.39908 -180 0 0 74.15 378.43 L74.15
							 332.26 A1.39908 1.39908 -180 0 0 72.75 330.86 L1.4 330.86 A1.39908 1.39908 -180 0 0 -0 332.26 L0 378.43
							 Z" class="st5"/>
			</g>
			<g id="shape221-130" v:mID="221" v:groupContext="shape" transform="translate(36.7017,-35.3864)">
				<title>bcc3d4fb-2f67-48ef-b6e7-f3c11ba</title>
				<path d="M32.97 378.47 A1.35241 1.35241 0 0 1 31.67 379.83 L1.35 379.83 A1.35241 1.35241 0 0 1 1.35 377.12 L31.67
							 377.12 A1.30578 1.30578 0 0 1 32.97 378.47 Z" class="st24"/>
			</g>
			<g id="shape222-132" v:mID="222" v:groupContext="shape" transform="translate(36.7017,-43.7807)">
				<title>e696babd-447d-4e2b-bc61-f978fd3</title>
				<path d="M32.97 378.47 A1.35241 1.35241 0 0 1 31.67 379.83 L1.35 379.83 A1.35241 1.35241 0 0 1 1.35 377.12 L31.67
							 377.12 A1.30578 1.30578 0 0 1 32.97 378.47 Z" class="st24"/>
			</g>
			<g id="shape223-134" v:mID="223" v:groupContext="shape" transform="translate(16.229,-55.9524)">
				<title>b5d2bd6a-dd0a-43be-bfa5-16266f7</title>
				<path d="M53.44 378.47 A1.30578 1.30578 0 0 1 52.14 379.83 L1.35 379.83 A1.35241 1.35241 0 0 1 1.35 377.12 L52.14
							 377.12 A1.30578 1.30578 0 0 1 53.44 378.47 Z" class="st24"/>
			</g>
			<g id="shape224-136" v:mID="224" v:groupContext="shape" transform="translate(7.22842,0)">
				<title>aad840c2-43d5-415e-a865-328ca9d</title>
				<path d="M16.7 358.71 A11.752 11.752 0 0 1 0.98 358.71 L0 378.25 A1.53895 1.53895 -180 0 0 2.66 379.42 L8.72 373.26
							 L14.83 379.46 A1.53895 1.53895 -180 0 0 17.49 378.34 L16.7 358.71 Z" class="st25"/>
			</g>
			<g id="shape225-138" v:mID="225" v:groupContext="shape" transform="translate(2.19184,-17.0589)">
				<title>beae3214-3e24-4a7c-af86-a4353a2</title>
				<ellipse cx="14.0371" cy="365.743" rx="14.0371" ry="14.0838" class="st26"/>
			</g>
			<g id="shape226-140" v:mID="226" v:groupContext="shape" transform="translate(5.54956,-20.4632)">
				<title>f1e213df-20de-4eb9-9bf3-0c6690c</title>
				<ellipse cx="10.6794" cy="369.147" rx="10.6794" ry="10.6794" class="st27"/>
			</g>
		</g>
		<g id="shape229-142" v:mID="229" v:groupContext="shape" transform="translate(59.9715,-266.414)">
			<title>Browser.229</title>
			<desc>Let’s Encrypt</desc>
			<v:textBlock v:margins="rect(0,0,0,0)"/>
			<v:textRect cx="41.9715" cy="376.591" width="83.95" height="6.46997"/>
			<rect x="0" y="373.356" width="83.943" height="6.46997" class="st28"/>
			<text x="18.49" y="379.29" class="st7" v:langID="1033"><v:paragraph v:horizAlign="1"/><v:tabList/>Let’s Encrypt  </text>		</g>
		<g id="shape230-145" v:mID="230" v:groupContext="shape" v:layerMember="0" transform="translate(146.943,-324.631)">
			<title>Dynamic connector.142</title>
			<path d="M4.92 388.65 L5.28 388.65 L80.16 389" class="st29"/>
		</g>
	</g>
</svg>
